<!--?xml version="1.0" standalone="no"?-->
              <svg id="sw-js-blob-svg" viewBox="0 0 100 100" xmlns="http://www.w3.org/2000/svg" version="1.1">
                    <defs> 
                        <linearGradient id="sw-gradient" x1="0" x2="1" y1="1" y2="0">
                            <stop id="stop1" stop-color="rgba(248, 117, 55, 1)" offset="0%"></stop>
                            <stop id="stop2" stop-color="rgba(251, 168, 31, 1)" offset="100%"></stop>
                        </linearGradient>
                    </defs>
                <path fill="url(#sw-gradient)" d="M21,-36.3C27.6,-32.5,33.7,-27.7,38.3,-21.5C42.9,-15.3,46,-7.7,46.2,0.1C46.5,7.9,43.9,15.9,39.2,22C34.6,28.1,27.8,32.3,21,35C14.1,37.7,7,38.9,0.2,38.5C-6.6,38.2,-13.3,36.4,-19.9,33.5C-26.6,30.7,-33.2,26.9,-38.1,21.1C-43,15.3,-46.2,7.7,-46.2,0C-46.1,-7.7,-43,-15.3,-38.6,-21.9C-34.2,-28.6,-28.6,-34.2,-21.9,-38C-15.3,-41.9,-7.7,-44,-0.2,-43.6C7.2,-43.2,14.3,-40.2,21,-36.3Z" width="100%" height="100%" transform="translate(50 50)" stroke-width="0" style="transition: all 0.3s ease 0s;" stroke="url(#sw-gradient)"></path>
              </svg>